<?xml version="1.0" encoding="UTF-8" standalone="no"?>
<!-- Created with Inkscape (http://www.inkscape.org/) -->

<svg
   width="500mm"
   height="500mm"
   viewBox="0 0 500 500"
   version="1.1"
   id="svg5"
   xml:space="preserve"
   sodipodi:docname="decepticon-error.svg"
   inkscape:version="1.2.1 (9c6d41e410, 2022-07-14)"
   xmlns:inkscape="http://www.inkscape.org/namespaces/inkscape"
   xmlns:sodipodi="http://sodipodi.sourceforge.net/DTD/sodipodi-0.dtd"
   xmlns="http://www.w3.org/2000/svg"
   xmlns:svg="http://www.w3.org/2000/svg"><sodipodi:namedview
     id="namedview7"
     pagecolor="#ffffff"
     bordercolor="#eeeeee"
     borderopacity="1"
     inkscape:showpageshadow="0"
     inkscape:pageopacity="0"
     inkscape:pagecheckerboard="0"
     inkscape:deskcolor="#505050"
     inkscape:document-units="mm"
     showgrid="false"
     inkscape:zoom="0.28252279"
     inkscape:cx="601.72137"
     inkscape:cy="962.7542"
     inkscape:window-width="1920"
     inkscape:window-height="1031"
     inkscape:window-x="0"
     inkscape:window-y="48"
     inkscape:window-maximized="1"
     inkscape:current-layer="layer1" /><defs
     id="defs2" /><g
     inkscape:label="Layer 1"
     inkscape:groupmode="layer"
     id="layer1"><g
       id="g150"
       transform="matrix(2.5386705,0,0,2.5386705,3.1069261,4.4126825)"><path
         fill-rule="evenodd"
         clip-rule="evenodd"
         fill="#ffffff"
         d="M 0,0 H 192.756 V 192.756 H 0 Z"
         id="path132"
         style="fill:none" /><path
         fill-rule="evenodd"
         clip-rule="evenodd"
         fill="#5a5d80"
         d="M 32.506,153.751 86.135,176.906 27.686,94.134 Z m 139.74,-130.347 -12.324,16.533 -37.799,11.169 -1.807,11.551 34.455,-8.869 -0.877,6.897 -34.838,9.471 -0.549,7.282 34.018,-8.541 -0.768,7.226 -30.895,8.103 c -3.285,0.821 -6.354,2.682 -9.312,5.528 L 96.213,103.332 80.711,88.769 c -2.356,-2.135 -5.04,-3.722 -8.107,-4.707 L 42.421,74.864 41.545,67.638 74.411,77.273 73.206,69.17 39.463,58.934 38.587,52.255 72.439,62.218 71.071,50.776 33.438,39.335 20.51,22.473 27.412,80.886 95.173,177.181 164.138,82.693 Z M 114.455,127.856 103.883,106.505 148.199,93.257 Z M 43.352,91.725 87.943,105.903 77.37,127.856 Z m 114.761,63.229 5.752,-59.89 -58.777,81.569 z"
         id="path134"
         style="fill:#ff2079;fill-opacity:1" /><path
         d="M 82.519,80.612 96.049,93.86 109.031,81.488 119.877,16.452 105.088,42.948 H 88.818 L 73.152,15.576 Z M 104.211,53.842 96.652,77.6 88.819,53.842 Z"
         fill-rule="evenodd"
         clip-rule="evenodd"
         fill="#5a5d80"
         id="path136"
         style="fill:#ff2079;fill-opacity:1" /><path
         d="m 158.113,154.954 -53.025,21.679 58.777,-81.568 z M 104.211,53.842 H 88.818 L 96.651,77.6 Z M 82.519,80.612 73.152,15.576 88.818,42.948 h 16.27 L 119.877,16.452 109.031,81.488 96.049,93.86 Z M 43.352,91.725 77.37,127.856 87.943,105.903 Z m 42.783,85.181 -58.449,-82.772 4.82,59.617 z m 17.748,-70.4 44.316,-13.248 -33.744,34.599 z m 56.039,-66.569 -37.799,11.169 -1.807,11.551 34.455,-8.869 -0.877,6.897 -34.838,9.471 -0.549,7.282 34.018,-8.541 -0.768,7.226 -30.895,8.103 c -3.285,0.821 -6.354,2.682 -9.312,5.528 L 96.213,103.332 80.711,88.769 c -2.356,-2.135 -5.04,-3.722 -8.107,-4.707 L 42.421,74.864 41.545,67.638 74.411,77.273 73.206,69.17 39.463,58.934 38.587,52.255 72.439,62.218 71.071,50.776 33.438,39.335 20.51,22.473 l 6.902,58.413 67.761,96.295 68.965,-94.488 8.107,-59.289 z"
         fill="none"
         stroke="#000000"
         stroke-width="1.52"
         stroke-linecap="round"
         stroke-linejoin="round"
         stroke-miterlimit="2.613"
         id="path138" /></g></g></svg>
